<?xml version="1.0" standalone="no"?>
<!DOCTYPE svg PUBLIC "-//W3C//DTD SVG 20010904//EN"
 "http://www.w3.org/TR/2001/REC-SVG-20010904/DTD/svg10.dtd">
<svg version="1.0" xmlns="http://www.w3.org/2000/svg"
 width="1000.000000pt" height="1000.000000pt" viewBox="0 0 1000.000000 1000.000000"
 preserveAspectRatio="xMidYMid meet">
<metadata>
Created by potrace 1.11, written by Peter Selinger 2001-2013
</metadata>
<g transform="translate(0.000000,1000.000000) scale(0.100000,-0.100000)"
fill="#000000" stroke="none">
<path d="M0 5000 l0 -5000 5000 0 5000 0 0 5000 0 5000 -5000 0 -5000 0 0
-5000z m7218 3258 c-17 -45 -420 -1580 -416 -1583 2 -3 41 2 85 9 191 34 372
49 588 49 226 1 337 -9 509 -44 585 -118 926 -466 1012 -1028 19 -127 21 -392
4 -536 -46 -394 -188 -835 -381 -1191 -160 -293 -313 -499 -544 -730 -222
-223 -385 -343 -623 -464 -359 -181 -755 -239 -1026 -149 -89 30 -128 59 -148
110 -50 134 -320 795 -327 802 -4 4 -56 -171 -116 -390 -59 -219 -112 -412
-117 -430 l-9 -33 -759 0 c-542 0 -760 3 -760 11 0 6 85 327 189 712 491 1820
693 2568 981 3637 171 635 317 1179 326 1208 l15 52 760 0 c605 0 760 -3 757
-12z m-3708 -1629 c372 -29 717 -118 1053 -272 42 -20 77 -41 77 -47 0 -6 -19
-81 -41 -168 -83 -316 -190 -718 -205 -769 l-15 -53 -54 45 c-145 118 -321
215 -489 270 -136 44 -228 59 -371 59 -131 0 -210 -16 -292 -58 -172 -88 -214
-294 -88 -434 53 -59 127 -109 320 -217 297 -165 421 -251 536 -371 109 -115
166 -214 209 -366 27 -94 37 -298 21 -422 -54 -403 -353 -769 -788 -965 -398
-179 -860 -225 -1398 -140 -144 23 -358 74 -510 121 -226 69 -505 189 -505
217 0 15 63 250 215 807 l57 211 147 -90 c272 -169 525 -287 720 -338 111 -29
316 -37 401 -14 122 32 190 81 231 169 22 46 29 76 29 121 0 96 -15 132 -84
200 -60 60 -112 94 -386 247 -265 148 -453 292 -545 418 -98 134 -143 277
-152 481 -20 481 237 924 670 1154 312 166 766 241 1237 204z"/>
<path d="M6790 5689 c-99 -8 -265 -45 -278 -62 -4 -7 -16 -39 -25 -72 -8 -33
-58 -220 -111 -415 -52 -195 -129 -483 -171 -640 -42 -157 -82 -307 -90 -335
-7 -27 -36 -137 -65 -244 l-51 -193 23 -26 c109 -124 258 -177 420 -152 178
27 320 102 464 245 173 172 288 372 388 677 76 228 106 386 113 578 9 248 -30
391 -138 505 -104 110 -254 152 -479 134z"/>
</g>
</svg>
